<svg width="620" height="119" viewBox="0 0 620 119" fill="none" xmlns="http://www.w3.org/2000/svg">
<path d="M357.04 6.85156V36.4141H352.27V28.7656H346.513V24.9414H352.27V20.6016H346.513V16.7344H352.27V6.85156H357.04ZM324.599 14.9727V11.1484H333.278V6.80859H338.048V11.1484H346.298V14.9727H324.599ZM326.618 24.125C326.597 19.6777 330.356 16.5625 335.599 16.5625C340.884 16.5625 344.686 19.6777 344.708 24.125C344.686 28.5938 340.884 31.666 335.599 31.6875C330.356 31.666 326.597 28.5938 326.618 24.125ZM331.087 24.125C331.065 26.5527 332.935 27.9922 335.599 27.9922C338.284 27.9922 340.175 26.5527 340.196 24.125C340.175 21.7617 338.284 20.3223 335.599 20.3008C332.935 20.3223 331.065 21.7617 331.087 24.125ZM331.431 44.8789V33.8789H336.286V41.0117H357.899V44.8789H331.431ZM376.838 13.5547C376.838 18.3457 380.147 23.1367 386.334 25.0703L383.885 28.7656C379.481 27.3477 376.28 24.4258 374.496 20.7305C372.756 24.748 369.448 27.9492 364.85 29.4961L362.401 25.8008C368.653 23.6953 371.983 18.6465 372.026 13.5547V13.082H363.647V9.25781H385.002V13.082H376.838V13.5547ZM367.944 35.8984V32.0312H394.455V45.6523H389.643V35.8984H367.944ZM389.643 30.2266V6.80859H394.455V30.2266H389.643ZM443.032 6.80859V45.6523H438.435V25.7148H434.267V43.8477H429.798V7.83984H434.267V21.8477H438.435V6.80859H443.032ZM409.388 34.2227C417.659 29.4531 421.161 23.3086 421.849 15.5312H411.193V11.707H426.49C426.49 22.2129 423.181 31.2363 412.138 37.5312L409.388 34.2227ZM453.335 8.52734V13.4688H462.401V8.52734H467.128V25.457H448.608V8.52734H453.335ZM452.518 31.9883V28.25H477.913V38.4336H457.288V41.5273H479.116V45.3086H452.561V34.9531H473.143V31.9883H452.518ZM453.335 21.6758H462.401V17.0781H453.335V21.6758ZM473.143 26.7031V6.80859H477.913V14.6719H483.327V18.5391H477.913V26.7031H473.143ZM498.785 17.8516C498.764 23.8457 502.373 30.6777 508.496 33.5352L505.832 37.3164C501.449 35.2539 498.205 31.0859 496.465 26.2305C494.703 31.5586 491.309 36.1133 486.84 38.2617L484.047 34.5234C490.235 31.5801 493.994 24.3184 494.016 17.8516V14.5859H485.551V10.6328H506.906V14.5859H498.785V17.8516ZM510.516 45.6523V6.80859H515.285V21.9336H521.258V25.9297H515.285V45.6523H510.516ZM555.966 6.80859V45.6523H551.369V6.80859H555.966ZM522.837 23.6094C522.837 15.0586 526.146 9.75195 531.216 9.77344C535.921 9.75195 539.123 14.1562 539.681 21.418H543.42V7.49609H547.974V43.7617H543.42V25.2852H539.724C539.273 32.8691 536.029 37.5098 531.216 37.4883C526.146 37.5098 522.837 32.1816 522.837 23.6094ZM527.263 23.6094C527.242 29.6895 528.746 32.9551 531.216 32.9336C533.795 32.9551 535.32 29.6895 535.341 23.6094C535.32 17.5508 533.795 14.2637 531.216 14.2852C528.746 14.2637 527.242 17.5508 527.263 23.6094ZM593.554 6.80859V45.6523H588.999V6.80859H593.554ZM559.737 34.0508C567.772 29.3027 571.468 23.2227 572.198 15.4023H561.714V11.5352H576.925C576.925 15.2949 576.452 18.8184 575.399 22.1055H580.792V7.75391H585.304V43.8047H580.792V25.9297H573.831C571.575 30.377 567.923 34.2656 562.444 37.4453L559.737 34.0508Z" fill="url(#paint0_linear_704_1554)"/>
<rect width="122.889" height="48.9707" rx="10" transform="matrix(-1 0 0 1 152.092 1.31738)" fill="url(#paint1_linear_704_1554)" fill-opacity="0.12"/>
<path d="M23 28.1593V23.5505C26.1083 23.5505 28.895 22.1036 28.895 18.1379V10.796C28.895 4.15074 32.2712 0.828125 38.5413 0.828125H39.2379V4.84742H38.5413C34.5756 4.84742 33.2894 6.56232 33.2894 10.4744V19.2633C33.2894 22.8538 31.1458 25.2118 27.716 25.8549C31.1458 26.498 33.2894 28.856 33.2894 32.4466V41.1818C33.2894 45.0939 34.5756 46.8088 38.5413 46.8088H39.2379V50.8281H38.5413C32.2712 50.8281 28.895 47.5055 28.895 40.8603V33.572C28.895 29.6063 26.1083 28.1593 23 28.1593Z" fill="url(#paint2_linear_704_1554)"/>
<rect x="180.735" y="1.31738" width="122.889" height="48.9707" rx="10" fill="url(#paint3_linear_704_1554)" fill-opacity="0.12"/>
<path d="M309.827 28.1593V23.5505C306.718 23.5505 303.932 22.1036 303.932 18.1379V10.796C303.932 4.15074 300.555 0.828125 294.285 0.828125H293.589V4.84742H294.285C298.251 4.84742 299.537 6.56232 299.537 10.4744V19.2633C299.537 22.8538 301.681 25.2118 305.111 25.8549C301.681 26.498 299.537 28.856 299.537 32.4466V41.1818C299.537 45.0939 298.251 46.8088 294.285 46.8088H293.589V50.8281H294.285C300.555 50.8281 303.932 47.5055 303.932 40.8603V33.572C303.932 29.6063 306.718 28.1593 309.827 28.1593Z" fill="url(#paint4_linear_704_1554)"/>
<path d="M76.0714 9.25977V31.5859C80.047 31.541 83.6856 31.2715 87.8409 30.373L88.5596 34.5957C83.4161 35.7188 78.9688 35.8984 73.8253 35.8984H71.085V9.25977H76.0714ZM82.4952 22.377V18.334H90.9854V6.07031H95.7022V43.8945H90.9854V22.377H82.4952ZM99.6553 45.8262V5.2168H104.417V45.8262H99.6553ZM129.787 9.21484C129.765 21.4785 126.418 32.0127 111.459 39.4473L108.719 35.6738C115.749 32.2148 119.949 28.1494 122.308 23.3428L109.662 24.5332L109.033 20.2207L123.813 19.2998C124.329 17.3906 124.666 15.3916 124.823 13.2578H111.145V9.21484H129.787ZM135.492 45.7363V5.2168H140.479V21.1191H146.498V25.207H140.479V45.7363H135.492ZM179.774 5.2168V20.8047H186.019V24.9824H179.774V45.8711H174.833V5.2168H179.774ZM149.587 12.8086V8.76562H168.274V24.084H154.618V32.1699C161.064 32.125 166.073 31.8555 171.733 30.8672L172.183 34.9102C165.916 36.0332 160.391 36.3027 153.001 36.3027H149.677V20.0859H163.288V12.8086H149.587ZM219.924 7.59766V11.2812C219.924 15.4814 219.924 20.1758 218.554 26.7793H224.281V30.8223H208.289V45.7363H203.258V30.8223H187.266V26.7793H213.635C214.196 24.376 214.533 22.1973 214.758 20.1982L191.084 21.3887L190.455 17.1211L215.072 16.4023C215.14 14.6953 215.162 13.1006 215.162 11.5957H191.713V7.59766H219.924ZM232.536 8.94531V18.334H239.14V8.94531H243.767V35.9883H227.819V8.94531H232.536ZM232.536 31.9453H239.14V22.2871H232.536V31.9453ZM247.765 43.8496V5.93555H252.481V20.8945H256.794V5.2168H261.601V45.8262H256.794V25.0273H252.481V43.8496H247.765Z" fill="url(#paint5_linear_704_1554)"/>
<path d="M16.3945 86.8516C16.3945 93.2109 20.1328 99.9141 26.4062 102.535L23.7852 106.316C19.1875 104.318 15.8359 100.258 14.0527 95.3164C12.2695 100.645 8.85352 105.113 4.32031 107.262L1.57031 103.523C7.69336 100.688 11.5176 93.4473 11.5391 86.8516V83.5859H2.98828V79.6328H24.9023V83.5859H16.3945V86.8516ZM29.2422 114.652V75.8086H34.0547V114.652H29.2422ZM70.4819 77.6992V80.707C70.5034 83.7363 70.5034 87.1738 69.5366 91.75H74.8217V95.6172H39.3295V91.75H64.7026C65.6264 87.5391 65.7123 84.3594 65.7123 81.5234H43.7123V77.6992H70.4819ZM43.5834 114.18V100.129H70.4389V114.18H43.5834ZM48.267 110.312H65.7123V103.867H48.267V110.312ZM117.34 75.8086V90.5898H123.313V94.6289H117.34V114.652H112.571V75.8086H117.34ZM88.2933 105.543V78.9883H93.0198V88.6992H102.172V78.9883H106.942V105.543H88.2933ZM93.0198 101.633H102.172V92.4375H93.0198V101.633ZM159.998 106.188V110.141H124.506V106.188H139.802V99.8711H128.717V87.1523H151.06V82.3398H128.631V78.4727H155.787V90.9336H133.486V95.9609H156.689V99.8711H144.529V106.188H159.998ZM203.676 79.2461V82.7695C203.655 87.4746 203.719 92.9102 201.958 101.117L197.274 100.645C197.962 97.5078 198.37 94.7363 198.606 92.2656L175.704 93.5547L175.016 89.4727L198.885 88.6133C198.971 86.5938 198.993 84.7891 198.993 83.1133H176.219V79.2461H203.676ZM172.094 109.883V105.93H185.157V96.3477H189.883V105.93H207.501V109.883H172.094ZM241.221 94.0273V97.8516H213.979V79.2031H240.92V83.0703H218.705V94.0273H241.221ZM209.682 109.711V105.758H245.174V109.711H209.682ZM279.625 75.8086V114.695H274.898V75.8086H279.625ZM249.375 83.0703V79.2031H267.679V93.7695H254.316V101.59C260.439 101.547 265.703 101.225 271.761 100.215L272.191 104.125C265.595 105.264 259.794 105.521 252.812 105.5H249.417V89.9883H262.824V83.0703H249.375ZM320.306 98.0234V101.891H311.97V114.652H307.2V101.891H298.005V114.652H293.106V101.891H284.813V98.0234H320.306ZM289.11 94.0703V77.3125H293.837V81.9531H311.196V77.3125H316.009V94.0703H289.11ZM293.837 90.2461H311.196V85.6914H293.837V90.2461ZM463.096 75.8086V84.832H468.51V88.7852H463.096V98.4531H458.326V75.8086H463.096ZM433.791 96.3906V78.0859H438.518V83.3711H447.584V78.0859H452.311V96.3906H433.791ZM438.045 114.094V100.344H463.354V104.168H442.815V110.312H464.084V114.094H438.045ZM438.518 92.6094H447.584V87.0664H438.518V92.6094ZM480.488 78.6445C486.332 78.6445 490.543 83.9727 490.586 92.3516C490.543 100.795 486.332 106.102 480.488 106.102C474.58 106.102 470.369 100.795 470.39 92.3516C470.369 83.9727 474.58 78.6445 480.488 78.6445ZM474.988 92.3516C474.966 98.3242 477.222 101.783 480.488 101.805C483.775 101.783 485.966 98.3242 485.988 92.3516C485.966 86.4219 483.775 82.9414 480.488 82.9414C477.222 82.9414 474.966 86.4219 474.988 92.3516ZM495.699 114.652V75.8086H500.468V90.7188H506.441V94.7578H500.468V114.652H495.699ZM543.126 106.059V109.969H507.634V106.059H522.931V98.4961H511.544V78.3867H516.314V84.7461H534.318V78.3867H539.087V98.4961H527.657V106.059H543.126ZM516.314 94.6289H534.318V88.5703H516.314V94.6289ZM557.338 85.9922C557.36 92.2656 559.508 98.7969 564.772 102.105L562.151 105.758C558.649 103.652 556.372 100.043 555.083 95.8105C553.686 100.473 551.194 104.426 547.542 106.66L544.577 103.094C550.227 99.6777 552.719 92.8242 552.741 86.207V79.2461H557.338V85.9922ZM560.604 93.125V89.1719H566.147V76.4961H570.659V112.762H566.147V93.125H560.604ZM574.139 114.652V75.8086H578.737V114.652H574.139ZM618.301 106.016V109.926H582.809V106.016H591.016V96.1973C587.922 94.4141 586.053 91.6211 586.074 88.1836C586.053 81.9961 592.111 77.9141 600.469 77.9141C608.869 77.9141 614.971 81.9961 614.949 88.1836C614.971 91.5781 613.145 94.3066 610.137 96.0898V106.016H618.301ZM590.758 88.1836C590.736 92.1582 594.668 94.6934 600.469 94.6719C606.248 94.6934 610.266 92.1582 610.266 88.1836C610.266 84.1445 606.248 81.6738 600.469 81.6953C594.668 81.6738 590.736 84.1445 590.758 88.1836ZM595.742 106.016H605.281V97.916C603.799 98.2383 602.188 98.4102 600.469 98.4102C598.793 98.4102 597.203 98.2383 595.742 97.9375V106.016Z" fill="url(#paint6_linear_704_1554)"/>
<path d="M382.266 74.8274L382.266 85.1406L377.881 85.1406L377.881 79.5503L340.532 79.5503L340.532 85.1406L336.194 85.1406L336.194 74.8274L382.266 74.8274Z" fill="#00CA69"/>
<path d="M395.084 118.264L390.264 118.264C390.264 115.517 389.011 113.203 385.59 113.203L378.891 113.203C372.722 113.203 369.734 109.878 369.734 104.191L369.734 103.083L374.024 103.083L374.024 104.143C374.024 107.035 375.325 108.481 378.65 108.481L386.65 108.481C389.783 108.481 391.951 110.312 392.674 113.396C393.349 110.312 395.517 108.481 398.65 108.481L406.65 108.481C409.975 108.481 411.325 107.035 411.325 104.143L411.325 103.083L415.614 103.083L415.614 104.191C415.614 109.878 412.626 113.203 406.457 113.203L399.71 113.203C396.337 113.203 395.084 115.517 395.084 118.264Z" fill="url(#paint7_linear_704_1554)"/>
<path d="M361.349 108.216L356.53 108.216C356.53 105.469 355.277 103.156 351.855 103.156L345.156 103.156C338.988 103.156 336 99.8303 336 94.1436L336 93.0352L340.289 93.0352L340.289 94.0954C340.289 96.9869 341.59 98.4327 344.915 98.4327L352.915 98.4327C356.048 98.4327 358.217 100.264 358.939 103.348C359.614 100.264 361.783 98.4327 364.915 98.4327L372.915 98.4327C376.241 98.4327 377.59 96.9869 377.59 94.0954L377.59 93.0352L381.879 93.0352L381.879 94.1436C381.879 99.8303 378.891 103.156 372.723 103.156L365.976 103.156C362.602 103.156 361.349 105.469 361.349 108.216Z" fill="#00CA69"/>
<path d="M416 84.8743L416 95.1875L411.614 95.1875L411.614 89.5972L374.265 89.5972L374.265 95.1875L369.928 95.1875L369.928 84.8743L416 84.8743Z" fill="url(#paint8_linear_704_1554)"/>
<defs>
<linearGradient id="paint0_linear_704_1554" x1="323" y1="25.8281" x2="597" y2="25.8281" gradientUnits="userSpaceOnUse">
<stop stop-color="#E9FFEE"/>
<stop offset="1" stop-color="#C8E9D0"/>
</linearGradient>
<linearGradient id="paint1_linear_704_1554" x1="0" y1="24.4853" x2="122.889" y2="24.4853" gradientUnits="userSpaceOnUse">
<stop stop-color="#B6FFCF" stop-opacity="0"/>
<stop offset="1" stop-color="#B6FFCF"/>
</linearGradient>
<linearGradient id="paint2_linear_704_1554" x1="21.8112" y1="25.3412" x2="41.2147" y2="25.3412" gradientUnits="userSpaceOnUse">
<stop stop-color="#55F87E"/>
<stop offset="1" stop-color="#43DD6A"/>
</linearGradient>
<linearGradient id="paint3_linear_704_1554" x1="180.735" y1="25.8027" x2="303.624" y2="25.8027" gradientUnits="userSpaceOnUse">
<stop stop-color="#B6FFCF" stop-opacity="0"/>
<stop offset="1" stop-color="#B6FFCF"/>
</linearGradient>
<linearGradient id="paint4_linear_704_1554" x1="311.015" y1="25.3412" x2="291.612" y2="25.3412" gradientUnits="userSpaceOnUse">
<stop stop-color="#55F87E"/>
<stop offset="1" stop-color="#43DD6A"/>
</linearGradient>
<linearGradient id="paint5_linear_704_1554" x1="68" y1="25.8281" x2="265" y2="25.8281" gradientUnits="userSpaceOnUse">
<stop stop-color="#55F87E"/>
<stop offset="1" stop-color="#43DD6A"/>
</linearGradient>
<linearGradient id="paint6_linear_704_1554" x1="0" y1="94.8281" x2="620" y2="94.8281" gradientUnits="userSpaceOnUse">
<stop stop-color="#E9FFEE"/>
<stop offset="1" stop-color="#C8E9D0"/>
</linearGradient>
<linearGradient id="paint7_linear_704_1554" x1="415.614" y1="110.673" x2="369.734" y2="110.673" gradientUnits="userSpaceOnUse">
<stop stop-color="#17DF5B"/>
<stop offset="1" stop-color="#00E276"/>
</linearGradient>
<linearGradient id="paint8_linear_704_1554" x1="369.928" y1="90.0309" x2="416" y2="90.0309" gradientUnits="userSpaceOnUse">
<stop stop-color="#17DF5B"/>
<stop offset="1" stop-color="#00E276"/>
</linearGradient>
</defs>
</svg>
