<svg width="101" height="14" viewBox="0 0 101 14" fill="none" xmlns="http://www.w3.org/2000/svg">
<g id="Group">
<path id="Vector" d="M64.5618 1.00684H62.7662V2.82841H64.5618V1.00684Z" fill="white"/>
<g id="Group_2">
<g id="Group_3">
<path id="Vector_2" d="M64.8594 3.52729C65.0479 3.52729 65.0479 3.24414 64.8594 3.24414C64.6709 3.24414 64.6709 3.52729 64.8594 3.52729Z" fill="white"/>
</g>
</g>
<path id="Vector_3" d="M12.0037 0.563477H20.7634V2.49831H14.4242V5.97157H20.4161V7.83089H14.4242V11.5118H20.7634V13.4466H12.0037V0.563477Z" fill="white"/>
<path id="Vector_4" d="M31.1499 12.8425C30.1976 12.3046 29.4635 11.5306 28.9476 10.5396C28.4318 9.5486 28.1738 8.35939 28.1738 6.99085V6.98141C28.1738 5.61287 28.4318 4.4331 28.9476 3.44208C29.4635 2.45107 30.1976 1.68658 31.1499 1.1486C32.1023 0.610622 33.2233 0.336914 34.5229 0.336914C35.5645 0.336914 36.4871 0.525678 37.3105 0.912645C38.1339 1.29017 38.7985 1.81871 39.3243 2.48882C39.8402 3.15894 40.1576 3.93287 40.2767 4.81062L40.2866 4.89557H37.9156L37.866 4.72568C37.7371 4.23489 37.5188 3.81017 37.2212 3.45152C36.9236 3.09287 36.5466 2.81916 36.0903 2.62096C35.6339 2.42276 35.1082 2.32838 34.5229 2.32838C33.7392 2.32838 33.0546 2.51714 32.4693 2.90411C31.884 3.28163 31.4376 3.81961 31.1202 4.51804C30.8027 5.20703 30.644 6.03759 30.644 6.99085V7.00029C30.644 7.95355 30.8027 8.77467 31.1202 9.4731C31.4376 10.1715 31.894 10.7095 32.4793 11.0965C33.0646 11.4834 33.7491 11.6722 34.5328 11.6722C35.1082 11.6722 35.624 11.5778 36.0804 11.3796C36.5367 11.1909 36.9137 10.9077 37.2311 10.5396C37.5486 10.1715 37.7767 9.71849 37.9156 9.18995L37.9454 9.10501H40.3164L40.2965 9.19939C40.1874 10.0771 39.8699 10.8511 39.3541 11.5212C38.8382 12.1913 38.1636 12.7198 37.3403 13.0974C36.5169 13.4749 35.5843 13.6637 34.5427 13.6637C33.2233 13.6637 32.1023 13.39 31.1499 12.8425Z" fill="white"/>
<path id="Vector_5" d="M44.6714 12.8425C43.7091 12.3046 42.975 11.5306 42.4492 10.5396C41.9235 9.53916 41.6655 8.35939 41.6655 7.00029V6.98141C41.6655 5.62231 41.9235 4.44253 42.4492 3.45152C42.975 2.46051 43.719 1.68658 44.6813 1.1486C45.6436 0.610622 46.7745 0.336914 48.0939 0.336914C49.4034 0.336914 50.5443 0.610622 51.5065 1.1486C52.4688 1.68658 53.2029 2.46051 53.7287 3.45152C54.2545 4.44253 54.5124 5.62231 54.5124 6.98141V7.00029C54.5124 8.35939 54.2545 9.53916 53.7287 10.5396C53.2029 11.5401 52.4688 12.3046 51.5065 12.8425C50.5542 13.3805 49.4133 13.6542 48.0939 13.6542C46.7745 13.6637 45.6337 13.39 44.6714 12.8425ZM50.207 11.0965C50.8022 10.7095 51.2486 10.1715 51.576 9.4731C51.8934 8.77467 52.0522 7.95355 52.0522 7.00972V6.99085C52.0522 6.03759 51.8934 5.21647 51.5661 4.51804C51.2486 3.81961 50.7823 3.28163 50.197 2.90411C49.6018 2.52658 48.9074 2.33781 48.0939 2.33781C47.2904 2.33781 46.596 2.52658 46.0007 2.90411C45.4055 3.28163 44.9392 3.81961 44.6218 4.51804C44.3043 5.21647 44.1357 6.03759 44.1357 7.00029V7.01916C44.1357 7.97242 44.2944 8.79355 44.6218 9.49197C44.9392 10.1904 45.4055 10.7284 46.0007 11.1153C46.596 11.4929 47.2904 11.6911 48.1038 11.6911C48.9074 11.6722 49.6117 11.474 50.207 11.0965Z" fill="white"/>
<path id="Vector_6" d="M56.4271 0.563477H61.3675C62.7166 0.563477 63.8674 0.80887 64.8297 1.30909C65.782 1.80932 66.5161 2.53606 67.032 3.48932C67.5479 4.44258 67.8058 5.59404 67.8058 6.95314V6.97202C67.8058 8.33112 67.5479 9.49202 67.0419 10.4547C66.536 11.4174 65.8019 12.163 64.8396 12.6727C63.8773 13.1824 62.7266 13.4372 61.3774 13.4372H56.437V0.563477H56.4271ZM61.1195 11.5024C62.0321 11.5024 62.8059 11.3325 63.4309 10.9833C64.0559 10.634 64.5321 10.1244 64.8594 9.45426C65.1868 8.78415 65.3455 7.96303 65.3455 6.98146V6.96258C65.3455 6.00932 65.1769 5.1882 64.8495 4.52752C64.5221 3.85741 64.046 3.35718 63.4111 3.01741C62.7861 2.67763 62.0222 2.50775 61.1195 2.50775H58.8477V11.5118H61.1195V11.5024Z" fill="white"/>
<path id="Vector_7" d="M69.7302 0.563477H72.1508V13.4372H69.7302V0.563477Z" fill="white"/>
<path id="Vector_8" d="M74.5317 0.563477H76.7043L84.6208 11.3891L82.3292 9.5864H83.351V0.563477H85.7517V13.4372H83.599L75.6726 2.57381L77.9642 4.36707H76.9325V13.4372H74.5317V0.563477Z" fill="white"/>
<path id="Vector_9" d="M90.6821 12.8425C89.7198 12.3046 88.9857 11.5306 88.4599 10.5302C87.9441 9.52973 87.6862 8.33107 87.6862 6.94366C87.6862 5.57512 87.9441 4.39534 88.4599 3.41377C88.9857 2.42276 89.7198 1.6677 90.6722 1.13916C91.6345 0.601184 92.7555 0.336914 94.0451 0.336914C95.1165 0.336914 96.049 0.51624 96.8625 0.874892C97.6661 1.23354 98.3307 1.72433 98.8367 2.34725C99.3426 2.97017 99.6898 3.67804 99.8585 4.47085L99.8981 4.62186H97.4478L97.4081 4.52748C97.1502 3.83849 96.7335 3.30051 96.1681 2.91354C95.5927 2.52658 94.8983 2.33781 94.065 2.33781C93.2515 2.33781 92.5571 2.51714 91.9718 2.88523C91.3865 3.24388 90.94 3.77242 90.6325 4.46141C90.3151 5.1504 90.1663 5.97152 90.1663 6.93422V6.94366C90.1663 7.92523 90.325 8.77467 90.6523 9.48254C90.9698 10.1904 91.4361 10.7378 92.0313 11.1153C92.6265 11.4929 93.3308 11.6816 94.1443 11.6816C94.8288 11.6816 95.424 11.5589 95.9498 11.3041C96.4756 11.0587 96.8823 10.7001 97.18 10.247C97.4776 9.794 97.6264 9.26546 97.6462 8.67085L97.6561 8.47265H94.303V6.67939H100.027V8.0668C100.027 9.23714 99.789 10.2282 99.3228 11.0682C98.8565 11.8987 98.1819 12.5405 97.299 12.9935C96.4161 13.4466 95.3645 13.6637 94.1245 13.6637C92.7852 13.6637 91.6444 13.39 90.6821 12.8425Z" fill="white"/>
<g id="Group_4">
<path id="Vector_10" d="M23.0252 10.9271H24.3545C24.3446 10.9649 24.3347 11.0121 24.3247 11.0498C24.2454 11.3047 24.1263 11.5689 23.9676 11.8143C23.799 12.0692 23.5708 12.3429 23.2633 12.626L23.1839 12.7015L24.414 13.617L24.4736 13.5604C24.9001 13.1734 25.2374 12.777 25.4854 12.3901C25.7235 12.0031 25.9021 11.5972 26.0112 11.1914C26.1203 10.7856 26.1699 10.342 26.1699 9.88893V7.9541H23.0153V10.9271H23.0252Z" fill="#00CA69"/>
<path id="Vector_11" d="M26.1798 0.931641H23.0251V3.8858H26.1798V0.931641Z" fill="#00CA69"/>
</g>
<path id="Vector_12" d="M7.4998 8.26473C8.28351 7.99102 8.89857 7.52855 9.36483 6.87731C9.82117 6.22607 10.0493 5.46158 10.0493 4.59326V4.57439C10.0493 3.74383 9.86085 3.03596 9.48387 2.43191C9.11682 1.83731 8.58112 1.37483 7.88669 1.0445C7.19227 0.723599 6.36888 0.553711 5.39668 0.553711H0V13.4274H2.42057V9.00091V8.61394V6.79237V6.56585V2.41304H5.09907C5.86294 2.41304 6.46808 2.61124 6.90458 2.99821C7.35099 3.38517 7.56924 3.92315 7.56924 4.59326V4.61214C7.56924 5.30113 7.36092 5.83911 6.93434 6.22607C6.50776 6.61304 5.91254 6.8018 5.13875 6.8018H3.8491V8.62338H4.90066C4.9205 8.62338 4.94034 8.62338 4.96019 8.62338C4.98003 8.62338 4.99987 8.62338 5.01971 8.62338L7.68829 13.4463H10.4462L7.4998 8.26473Z" fill="white"/>
</g>
</svg>
