<svg width="136" height="18" viewBox="0 0 136 18" fill="none" xmlns="http://www.w3.org/2000/svg">
<path d="M134.975 17.6386H132.612L132.393 15.446C131.638 16.7128 129.859 18.004 127.106 18.004C122.599 18.004 118.604 14.6907 118.604 8.98984C118.604 3.31333 122.818 0 127.301 0C131.491 0 134.171 2.41191 135.097 5.26235L132.344 6.30994C131.759 4.36093 130.054 2.70426 127.301 2.70426C124.499 2.70426 121.576 4.702 121.576 8.98984C121.576 13.2046 124.304 15.3241 127.277 15.3241C130.761 15.3241 132.076 12.9366 132.222 11.4505H126.521V8.89239H134.975V17.6386Z" fill="black"/>
<path d="M115.596 17.6384H112.551L104.024 4.55562V17.6384H101.101V0.365234H104.828L112.673 12.6197V0.365234H115.596V17.6384Z" fill="black"/>
<path d="M97.0123 17.6384H94.04V0.365234H97.0123V17.6384Z" fill="black"/>
<path d="M79.3869 14.9585H82.4566C85.4532 14.9585 87.9382 13.0338 87.9382 9.03836C87.9382 4.99415 85.4776 3.04513 82.481 3.04513H79.3869V14.9585ZM82.5541 17.6384H76.4634V0.365234H82.5784C87.2804 0.365234 90.9836 3.48366 90.9836 9.03836C90.9836 14.5687 87.2317 17.6384 82.5541 17.6384Z" fill="black"/>
<path d="M58.9082 8.98984C58.9082 13.1559 61.783 15.2267 64.6822 15.2267C67.6057 15.2267 70.4805 13.1559 70.4805 8.98984C70.4805 4.82382 67.6057 2.75299 64.6822 2.75299C61.783 2.75299 58.9082 4.82382 58.9082 8.98984ZM55.9116 8.98984C55.9116 3.33769 60.1507 0 64.6822 0C69.2137 0 73.4771 3.33769 73.4771 8.98984C73.4771 14.6664 69.2137 18.004 64.6822 18.004C60.1507 18.004 55.9116 14.6664 55.9116 8.98984Z" fill="black"/>
<path d="M46.5817 18.004C41.9284 18.004 37.8599 14.642 37.8599 9.0142C37.8599 3.38642 42.0746 0 46.5574 0C50.9426 0 53.5494 2.58245 54.3291 5.60342L51.5761 6.52921C51.0645 4.43401 49.4565 2.75299 46.5574 2.75299C43.7069 2.75299 40.8565 4.82382 40.8565 9.0142C40.8565 13.0584 43.6338 15.2023 46.5817 15.2023C49.4809 15.2023 51.1375 13.3508 51.7222 11.4017L54.4021 12.2788C53.6225 15.2023 50.9914 18.004 46.5817 18.004Z" fill="black"/>
<path d="M25.7745 17.6384H15.1036V0.365234H25.7745V3.09386H18.0271V7.67405H25.0436V10.3296H18.0271V14.9098H25.7745V17.6384Z" fill="black"/>
<path d="M8.72185 17.6384L5.0918 10.8168H2.94789V17.6384H0V0.365234H6.62666C9.96435 0.365234 12.0352 2.67969 12.0352 5.60322C12.0352 8.06385 10.5491 9.93978 8.13714 10.5245L12.0352 17.6384H8.72185ZM2.94789 8.23439H6.09068C7.89352 8.23439 9.06293 7.1868 9.06293 5.60322C9.06293 3.99528 7.89352 2.94768 6.09068 2.94768H2.94789V8.23439Z" fill="black"/>
<path d="M30.0002 13.4772V9.99991H33.562V12.6284C33.562 15.1473 32.2129 17.0366 30.0002 17.4473V15.7223C30.9177 15.5307 31.6462 14.4628 31.6732 13.4772H30.0002Z" fill="#4DE573"/>
<rect x="30" y="2.48828" width="3.56178" height="3.56178" fill="#4DE573"/>
</svg>
