<svg width="40" height="22" viewBox="0 0 40 22" fill="none" xmlns="http://www.w3.org/2000/svg">
<g id="Group 6">
<g id="Group 2187">
<path id="]" d="M23.1328 -0.00032299L23.1328 5.15625L20.9401 5.15625L20.9401 2.3611L2.26557 2.3611L2.26557 5.15625L0.0969238 5.15625L0.0969239 -0.000323296L23.1328 -0.00032299Z" fill="#00CA69"/>
<path id="}" d="M29.5419 21.7182L27.1323 21.7182C27.1323 20.3447 26.5058 19.1881 24.795 19.1881L21.4456 19.1881C18.3613 19.1881 16.8674 17.5255 16.8674 14.6821L16.8674 14.1279L19.0119 14.1279L19.0119 14.658C19.0119 16.1038 19.6625 16.8267 21.3251 16.8267L25.3251 16.8267C26.8914 16.8267 27.9757 17.7424 28.3371 19.2845C28.6745 17.7424 29.7588 16.8267 31.325 16.8267L35.325 16.8267C36.9876 16.8267 37.6623 16.1038 37.6623 14.658L37.6623 14.1279L39.8069 14.1279L39.8069 14.6821C39.8069 17.5255 38.3129 19.1881 35.2286 19.1881L31.8552 19.1881C30.1684 19.1881 29.5419 20.3447 29.5419 21.7182Z" fill="url(#paint0_linear_101_8093)"/>
<path id="}_2" d="M12.6745 16.6943L10.2649 16.6943C10.2649 15.3208 9.63839 14.1642 7.92756 14.1642L4.5782 14.1642C1.49389 14.1642 -6.87982e-05 12.5016 -6.86864e-05 9.65821L-6.86646e-05 9.104L2.14449 9.104L2.14449 9.63412C2.14449 11.0799 2.79508 11.8028 4.45772 11.8028L8.45767 11.8028C10.0239 11.8028 11.1082 12.7184 11.4697 14.2606C11.807 12.7184 12.8914 11.8028 14.4576 11.8028L18.4576 11.8028C20.1202 11.8028 20.7949 11.0799 20.7949 9.63412L20.7949 9.104L22.9395 9.104L22.9395 9.65822C22.9395 12.5016 21.4455 14.1642 18.3612 14.1642L14.9877 14.1642C13.301 14.1642 12.6745 15.3208 12.6745 16.6943Z" fill="#00CA69"/>
<path id="]_2" d="M39.9998 5.02409L39.9998 10.1807L37.807 10.1807L37.807 7.38551L19.1325 7.38551L19.1325 10.1807L16.9639 10.1807L16.9639 5.02409L39.9998 5.02409Z" fill="url(#paint1_linear_101_8093)"/>
</g>
</g>
<defs>
<linearGradient id="paint0_linear_101_8093" x1="39.8069" y1="17.9231" x2="16.8674" y2="17.9231" gradientUnits="userSpaceOnUse">
<stop stop-color="#17DF5B"/>
<stop offset="1" stop-color="#00E276"/>
</linearGradient>
<linearGradient id="paint1_linear_101_8093" x1="16.9639" y1="7.60238" x2="39.9998" y2="7.60238" gradientUnits="userSpaceOnUse">
<stop stop-color="#17DF5B"/>
<stop offset="1" stop-color="#00E276"/>
</linearGradient>
</defs>
</svg>
